# xmcd
#
# Track frame offsets:
#	150
#	35805
#	73007
#	133345
#	207597
#
# Disc length: 4524 seconds
#
# Revision: 1
# Processed by: cddbd v1.5.1PL0 Copyright (c) Steve Scherf et al.
# Submitted via: CDex 1.50Beta5
#
DISCID=5311aa05
DTITLE=Happy☆Lesson - Happy☆Lesson Drama Cd ラブラブ☆デート騒動
DYEAR=2003
DGENRE=Anime
TTITLE0=オープニングトーク「かほる&きみきみからのご案内」
TTITLE1=「第1話 ながつきの願い事」
TTITLE2=「第2話 ながつきレディ化計画?」
TTITLE3=「第3話 ながつきハッピーバースディ」
TTITLE4=エンドクレジット「どきどき声優トーク」
EXTD=
EXTT0=
EXTT1=
EXTT2=
EXTT3=
EXTT4=
PLAYORDER=
